<svg width="458" height="367" fill="none" xmlns="http://www.w3.org/2000/svg"><mask id="a" fill="#fff"><path fill-rule="evenodd" clip-rule="evenodd" d="M45.955 3.83v-.063a3.767 3.767 0 10-2.125 3.392l84.274 145.967H7.492a3.768 3.768 0 00-7.492.565 3.767 3.767 0 005.313 3.436l117.29 203.152a3.767 3.767 0 104.386-.383l60.247-104.351 61.684 106.84.577 1 .577-1L456.509 4.83l.577-1H45.955zm80.108 355.67l60.595-104.955-57.977-100.419H7.509a3.76 3.76 0 01-1.347 2.472l117.279 203.133a3.802 3.802 0 012.622-.231zM44.665 6.606a3.77 3.77 0 001.139-1.776h409.55L249.497 361.385l-61.684-106.84 57.977-100.419.578-1H129.259L44.665 6.606zm85.171 147.52l57.4 99.419 57.399-99.419H129.836z"/></mask><path fill-rule="evenodd" clip-rule="evenodd" d="M45.955 3.83v-.063a3.767 3.767 0 10-2.125 3.392l84.274 145.967H7.492a3.768 3.768 0 00-7.492.565 3.767 3.767 0 005.313 3.436l117.29 203.152a3.767 3.767 0 104.386-.383l60.247-104.351 61.684 106.84.577 1 .577-1L456.509 4.83l.577-1H45.955zm80.108 355.67l60.595-104.955-57.977-100.419H7.509a3.76 3.76 0 01-1.347 2.472l117.279 203.133a3.802 3.802 0 012.622-.231zM44.665 6.606a3.77 3.77 0 001.139-1.776h409.55L249.497 361.385l-61.684-106.84 57.977-100.419.578-1H129.259L44.665 6.606zm85.171 147.52l57.4 99.419 57.399-99.419H129.836z" fill="#fff"/><path d="M45.955 3.83l-1-.016-.016 1.016h1.016v-1zM43.83 7.159l.866-.5-.465-.806-.837.406.436.9zm84.274 145.967v1h1.732l-.866-1.5-.866.5zm-120.612 0l-.99.149.129.851h.86v-1zm-2.18 4.001l.867-.5-.452-.783-.825.371.41.912zm117.291 203.152l.653.757.626-.54-.413-.717-.866.5zm4.386-.383l-.866-.5-.493.853.847.505.512-.858zm60.247-104.351l.866-.5-.866-1.5-.866 1.5.866.5zm61.684 106.84l.866-.5-.866.5zm.577 1l-.866.5.866 1.5.866-1.5-.866-.5zm.577-1l-.866-.5.866.5zM456.509 4.83l.866.5-.866-.5zm.577-1l.866.5.866-1.5h-1.732v1zm-1.155 0v-1 1zM186.658 254.545l.866.5.289-.5-.289-.5-.866.5zM126.063 359.5l-.265.964.744.205.387-.669-.866-.5zm2.618-205.374l.866-.5-.288-.5h-.578v1zm-121.172 0v-1h-.892l-.101.886.993.114zm-1.347 2.472l-.636-.771-.653.539.423.732.866-.5zm117.279 203.133l-.866.5.462.801.835-.398-.431-.903zM45.804 4.83v-1h-.749l-.21.718.959.282zm-1.139 1.776l-.658-.754-.62.541.412.713.866-.5zM455.354 4.83l.866.5.866-1.5h-1.732v1zM249.497 361.385l-.866.5.866 1.5.866-1.5-.866-.5zm-61.684-106.84l-.866-.5-.289.5.289.5.866-.5zm57.977-100.419l.866.5-.866-.5zm.578-1l.866.5.866-1.5h-1.732v1zm-117.109 0l-.866.5.288.5h.578v-1zm57.977 100.419l-.866.5.866 1.5.866-1.5-.866-.5zm-57.4-99.419v-1h-1.732l.866 1.5.866-.5zm114.799 0l.867.5.866-1.5h-1.733v1zM44.955 3.766v.048l2 .032v-.08h-2zM42.19 1a2.767 2.767 0 012.767 2.767h2A4.767 4.767 0 0042.189-1v2zm-2.767 2.767A2.767 2.767 0 0142.189 1v-2a4.767 4.767 0 00-4.767 4.767h2zm2.767 2.767a2.767 2.767 0 01-2.767-2.767h-2a4.767 4.767 0 004.767 4.767v-2zm1.205-.275a2.752 2.752 0 01-1.205.275v2c.742 0 1.448-.17 2.077-.475l-.872-1.8zm85.576 146.367L44.696 6.659l-1.732 1 84.274 145.967 1.732-1zm-121.478 1.5h120.612v-2H7.492v2zm-3.725-3.202a2.768 2.768 0 012.736 2.351l1.978-.298a4.768 4.768 0 00-4.714-4.053v2zM1 153.691a2.767 2.767 0 012.767-2.767v-2A4.767 4.767 0 00-1 153.691h2zm2.767 2.767A2.767 2.767 0 011 153.691h-2a4.767 4.767 0 004.767 4.767v-2zm1.135-.243a2.745 2.745 0 01-1.135.243v2c.695 0 1.358-.15 1.957-.419l-.822-1.824zm118.567 203.564L6.179 156.627l-1.732 1 117.29 203.152 1.732-1zm-1.174 3.354c0-.838.371-1.588.961-2.097l-1.307-1.514a4.76 4.76 0 00-1.654 3.611h2zm2.767 2.767a2.767 2.767 0 01-2.767-2.767h-2a4.767 4.767 0 004.767 4.767v-2zm2.767-2.767a2.767 2.767 0 01-2.767 2.767v2a4.767 4.767 0 004.767-4.767h-2zm-1.352-2.379a2.766 2.766 0 011.352 2.379h2a4.765 4.765 0 00-2.327-4.096l-1.025 1.717zm59.893-105.709l-60.247 104.351 1.732 1 60.247-104.351-1.732-1zm63.416 106.84l-61.684-106.84-1.732 1 61.684 106.84 1.732-1zm.577 1l-.577-1-1.732 1 .577 1 1.732-1zm-1.155-1l-.577 1 1.732 1 .577-1-1.732-1zM455.643 4.33L249.208 361.885l1.732 1L457.375 5.33l-1.732-1zm.577-1l-.577 1 1.732 1 .577-1-1.732-1zm-.289 1.5h1.155v-2h-1.155v2zm-409.976 0h409.976v-2H45.955v2zm139.837 249.215L125.197 359l1.732 1 60.595-104.955-1.732-1zm-57.977-99.419l57.977 100.419 1.732-1-57.977-100.419-1.732 1zm-120.306.5h121.172v-2H7.509v2zm-.71 2.244a4.762 4.762 0 001.703-3.13l-1.986-.228a2.76 2.76 0 01-.99 1.815l1.272 1.543zm117.508 201.861L7.028 156.098l-1.732 1 117.279 203.133 1.732-1zm-.435 1.403a2.744 2.744 0 011.19-.268v-2c-.733 0-1.429.166-2.052.463l.862 1.805zm1.19-.268c.256 0 .502.034.736.098l.53-1.928a4.78 4.78 0 00-1.266-.17v2zM44.844 4.548a2.77 2.77 0 01-.837 1.304l1.316 1.507a4.769 4.769 0 001.44-2.247l-1.919-.564zm410.51-.718H45.804v2h409.55v-2zM250.363 361.885L456.22 5.33l-1.732-1-205.857 356.555 1.732 1zm-63.416-106.84l61.684 106.84 1.732-1-61.684-106.84-1.732 1zm57.977-101.419l-57.977 100.419 1.732 1 57.977-100.419-1.732-1zm.578-1l-.578 1 1.732 1 .578-1-1.732-1zm-.289 1.5h1.155v-2h-1.155v2zm-115.954 0h115.954v-2H129.259v2zM43.799 7.106l84.594 146.52 1.732-1L45.531 6.106l-1.732 1zm144.303 245.939l-57.4-99.419-1.732 1 57.4 99.419 1.732-1zm55.667-99.419l-57.399 99.419 1.732 1 57.4-99.419-1.733-1zm-113.933 1.5h114.799v-2H129.836v2z" fill="#000" fill-opacity=".5" mask="url(#a)"/></svg>