<svg width="611" height="487" fill="none" xmlns="http://www.w3.org/2000/svg"><mask id="a" fill="#fff"><path fill-rule="evenodd" clip-rule="evenodd" d="M61 5.084V5a5 5 0 10-2.823 4.502L170.038 203.25H9.944a5 5 0 10-2.892 5.311l155.684 269.651a5 5 0 105.822-.509l79.968-138.508 79.535 137.759a5 5 0 106.109.179L604.088 9.621a5 5 0 10-3.087-4.538H60.999zm540.118 1H60.882a5 5 0 01-1.853 2.894L171.192 203.25h155.822l-.578 1-77.333 133.945 79.821 138.255A4.986 4.986 0 01331 476c.844 0 1.639.209 2.336.578L603.207 9.148a5 5 0 01-2.089-3.064zM167.649 477.278l80.299-139.083-77.333-133.945H9.994a4.993 4.993 0 01-2.076 3.81l155.64 269.576A4.976 4.976 0 01166 477c.578 0 1.133.098 1.649.278zm4.121-273.028l76.756 132.945 76.756-132.945H171.77z"/></mask><path fill-rule="evenodd" clip-rule="evenodd" d="M61 5.084V5a5 5 0 10-2.823 4.502L170.038 203.25H9.944a5 5 0 10-2.892 5.311l155.684 269.651a5 5 0 105.822-.509l79.968-138.508 79.535 137.759a5 5 0 106.109.179L604.088 9.621a5 5 0 10-3.087-4.538H60.999zm540.118 1H60.882a5 5 0 01-1.853 2.894L171.192 203.25h155.822l-.578 1-77.333 133.945 79.821 138.255A4.986 4.986 0 01331 476c.844 0 1.639.209 2.336.578L603.207 9.148a5 5 0 01-2.089-3.064zM167.649 477.278l80.299-139.083-77.333-133.945H9.994a4.993 4.993 0 01-2.076 3.81l155.64 269.576A4.976 4.976 0 01166 477c.578 0 1.133.098 1.649.278zm4.121-273.028l76.756 132.945 76.756-132.945H171.77z" fill="#fff"/><path d="M61 5.084l-1-.017-.017 1.017h1.016v-1zm-2.823 4.418l.866-.5-.465-.805-.837.405.436.9zM170.038 203.25v1h1.732l-.866-1.5-.866.5zm-160.094 0l-.989.149.128.851h.861v-1zm-2.892 5.311l.866-.5-.452-.784-.825.372.411.912zm155.684 269.651l.653.758.627-.541-.414-.717-.866.5zm5.822-.509l-.866-.5-.493.854.847.505.512-.859zm79.968-138.508l.866-.5-.866-1.5-.866 1.5.866.5zm79.535 137.759l.588.809.728-.529-.45-.78-.866.5zm6.109.179l-.866-.5-.424.735.656.538.634-.773zM604.088 9.621l.383-.923-.81-.336-.439.76.866.5zm-3.087-4.537v1h1.015l-.015-1.016-1 .016zm-540.119 1v-1h-.803l-.173.784.976.216zm540.236 0l.976-.216-.173-.784h-.803v1zM59.029 8.978l-.606-.795-.7.533.44.762.866-.5zM171.192 203.25l-.866.5.289.5h.577v-1zm154.667 0v-1 1zm1.155 0l.866.5.866-1.5h-1.732v1zm-.578 1l.866.5-.866-.5zm-77.333 133.945l-.866-.5-.289.5.289.5.866-.5zm79.821 138.255l-.866.5.455.787.827-.378-.416-.909zm4.412.128l-.468.884.852.451.482-.835-.866-.5zM603.207 9.148l.866.5.466-.808-.773-.521-.559.829zM247.948 338.195l.866.5.289-.5-.289-.5-.866.5zm-80.299 139.083l-.33.944.782.273.414-.717-.866-.5zm2.966-273.028l.866-.5-.289-.5h-.577v1zm-160.621 0v-1h-.952l-.047.951.999.049zm-2.076 3.81l-.584-.811-.734.528.452.783.866-.5zm155.64 269.576l-.866.5.494.855.861-.483-.489-.872zm84.968-140.441l-.866.5.866 1.5.866-1.5-.866-.5zM171.77 204.25v-1h-1.732l.866 1.5.866-.5zm153.512 0l.866.5.866-1.5h-1.732v1zM60 5v.067l2 .033V5h-2zm-4-4a4 4 0 014 4h2a6 6 0 00-6-6v2zm-4 4a4 4 0 014-4v-2a6 6 0 00-6 6h2zm4 4a4 4 0 01-4-4h-2a6 6 0 006 6V9zm1.741-.398A3.98 3.98 0 0156 9v2a5.98 5.98 0 002.613-.598l-.872-1.8zM170.904 202.75L59.044 9.002l-1.733 1L169.172 203.75l1.732-1zm-160.96 1.5h160.094v-2H9.944v2zM5 200a4.001 4.001 0 013.955 3.399l1.978-.298A6.002 6.002 0 005 198v2zm-4 4a4 4 0 014-4v-2a6 6 0 00-6 6h2zm4 4a4 4 0 01-4-4h-2a6 6 0 006 6v-2zm1.641-.351c-.5.225-1.054.351-1.641.351v2a5.97 5.97 0 002.463-.528l-.822-1.823zm156.961 270.063L7.918 208.061l-1.732 1L161.87 478.712l1.732-1zM162 482c0-1.211.537-2.295 1.389-3.03l-1.306-1.515A5.989 5.989 0 00160 482h2zm4 4a4 4 0 01-4-4h-2a6 6 0 006 6v-2zm4-4a4 4 0 01-4 4v2a6 6 0 006-6h-2zm-1.954-3.438A3.998 3.998 0 01170 482h2a5.999 5.999 0 00-2.929-5.156l-1.025 1.718zm79.614-139.867l-79.968 138.508 1.732 1 79.968-138.508-1.732-1zm81.267 137.759l-79.535-137.759-1.732 1 79.535 137.759 1.732-1zM327 481c0-1.33.648-2.508 1.649-3.237l-1.176-1.617A5.993 5.993 0 00325 481h2zm4 4a4 4 0 01-4-4h-2a6 6 0 006 6v-2zm4-4a4 4 0 01-4 4v2a6 6 0 006-6h-2zm-1.464-3.094A3.992 3.992 0 01335 481h2c0-1.87-.857-3.541-2.195-4.64l-1.269 1.546zM603.222 9.121L333.304 476.633l1.732 1L604.954 10.122l-1.732-1zM606 9a3.983 3.983 0 01-1.529-.302l-.765 1.847A5.98 5.98 0 00606 11V9zm4-4a4 4 0 01-4 4v2a6 6 0 006-6h-2zm-4-4a4 4 0 014 4h2a6 6 0 00-6-6v2zm-4 4a4 4 0 014-4v-2a6 6 0 00-6 6h2zm.001.068L602 5h-2l.001.099 2-.03zM60.999 6.084h540.002v-2H60.999v2zm-.117 1h540.236v-2H60.882v2zm-1.246 2.69a6.002 6.002 0 002.223-3.475l-1.953-.431a4.002 4.002 0 01-1.483 2.315l1.213 1.59zM172.058 202.75L59.896 8.478l-1.733 1L170.326 203.75l1.732-1zm153.801-.5H171.192v2h154.667v-2zm1.155 0h-1.155v2h1.155v-2zm.288 2.5l.578-1-1.732-1-.578 1 1.732 1zm-77.333 133.945l77.333-133.945-1.732-1-77.333 133.945 1.732 1zM329.79 475.95l-79.821-138.255-1.732 1 79.821 138.255 1.732-1zM331 475c-.887 0-1.731.193-2.491.54l.831 1.819A3.988 3.988 0 01331 477v-2zm2.804.694A5.985 5.985 0 00331 475v2c.677 0 1.312.167 1.868.462l.936-1.768zM602.341 8.648L332.47 476.078l1.732 1L604.073 9.648l-1.732-1zm1.425-.33a4.007 4.007 0 01-1.672-2.45l-1.953.431a6.006 6.006 0 002.507 3.678l1.118-1.658zM247.082 337.696l-80.299 139.083 1.732 1 80.299-139.083-1.732-1zM169.749 204.75l77.333 133.945 1.732-1-77.333-133.945-1.732 1zm-159.755.5h160.621v-2H9.994v2zm-1.491 3.622a5.994 5.994 0 002.49-4.573l-1.998-.098a3.995 3.995 0 01-1.661 3.048l1.169 1.623zm155.921 268.264L8.784 207.56l-1.732 1 155.64 269.576 1.732-1zM166 476a5.97 5.97 0 00-2.931.764l.978 1.744A3.983 3.983 0 01166 478v-2zm1.978.334A5.982 5.982 0 00166 476v2c.464 0 .907.079 1.319.222l.659-1.888zm81.414-139.639L172.636 203.75l-1.732 1 76.756 132.945 1.732-1zm75.024-132.945L247.66 336.695l1.732 1 76.756-132.945-1.732-1zm-152.646 1.5h153.512v-2H171.77v2z" fill="#000" fill-opacity=".5" mask="url(#a)"/></svg>