<svg width="611" height="487" fill="none" xmlns="http://www.w3.org/2000/svg"><path fill-rule="evenodd" clip-rule="evenodd" d="M61 5.084V5a5 5 0 10-2.823 4.502L170.038 203.25H9.944a5 5 0 10-2.892 5.311l155.684 269.651a5 5 0 105.822-.509l79.968-138.508 79.535 137.759a5 5 0 106.109.179L604.088 9.621a5 5 0 10-3.087-4.538H60.999zm540.118 1H60.882a5 5 0 01-1.853 2.894L171.192 203.25h155.822l-.578 1-77.333 133.945 79.821 138.255A4.986 4.986 0 01331 476c.844 0 1.639.209 2.336.578L603.207 9.148a5 5 0 01-2.089-3.064zM167.649 477.278l80.299-139.083-77.333-133.945H9.994a4.993 4.993 0 01-2.076 3.81l155.64 269.576A4.976 4.976 0 01166 477c.578 0 1.133.098 1.649.278zm4.121-273.028l76.756 132.945 76.756-132.945H171.77z" fill="#fff" fill-opacity=".4"/></svg>