<svg width="479" height="385" fill="none" xmlns="http://www.w3.org/2000/svg"><mask id="a" fill="#fff"><path fill-rule="evenodd" clip-rule="evenodd" d="M48.106 3.943v.066H478.46l-.578 1-214.351 371.267a3.943 3.943 0 11-4.817-.141l-62.723-108.64-63.064 109.23a3.943 3.943 0 11-4.592.402L5.561 164.475a3.943 3.943 0 112.28-4.188h126.254L45.88 7.494a3.943 3.943 0 112.226-3.55zm214.579 371.801a3.937 3.937 0 00-3.093-.09l-63.023-109.159 60.742-105.208.578-1h-122.64L46.719 6.947a3.945 3.945 0 001.241-1.938h428.77L262.685 375.744zm-67.271-109.249l-63.41 109.829a3.945 3.945 0 00-1.094-.153c-.624 0-1.214.145-1.738.403L6.414 163.951a3.935 3.935 0 001.451-2.664h126.807l60.742 105.208zm.578-1l-60.165-104.208h120.33l-60.165 104.208z"/></mask><path fill-rule="evenodd" clip-rule="evenodd" d="M48.106 3.943v.066H478.46l-.578 1-214.351 371.267a3.943 3.943 0 11-4.817-.141l-62.723-108.64-63.064 109.23a3.943 3.943 0 11-4.592.402L5.561 164.475a3.943 3.943 0 112.28-4.188h126.254L45.88 7.494a3.943 3.943 0 112.226-3.55zm214.579 371.801a3.937 3.937 0 00-3.093-.09l-63.023-109.159 60.742-105.208.578-1h-122.64L46.719 6.947a3.945 3.945 0 001.241-1.938h428.77L262.685 375.744zm-67.271-109.249l-63.41 109.829a3.945 3.945 0 00-1.094-.153c-.624 0-1.214.145-1.738.403L6.414 163.951a3.935 3.935 0 001.451-2.664h126.807l60.742 105.208zm.578-1l-60.165-104.208h120.33l-60.165 104.208z" fill="#fff"/><path d="M48.105 4.009l-1-.016-.016 1.016h1.016v-1zm429.201 0v-1 1zm1.155 0l.866.5.866-1.5h-1.732v1zm-.578 1l.866.5-.866-.5zM263.532 376.276l-.866-.5-.424.734.656.539.634-.773zm-4.817-.141l.588.808.728-.529-.45-.779-.866.5zm-62.723-108.64l.866-.5-.866-1.5-.866 1.5.866.5zm-63.064 109.23l-.866-.5-.493.854.846.505.513-.859zm-4.592.402l.653.757.627-.541-.414-.716-.866.5zM5.561 164.475l.866-.5-.452-.784-.824.372.41.912zm2.281-4.188l-.989.148.128.852h.861v-1zm126.253 0v1h1.732l-.866-1.5-.866.5zM45.88 7.494l.866-.5-.465-.806-.837.406.436.9zm216.805 368.25l-.42.908.829.383.457-.791-.866-.5zm-3.093-.09l-.866.5.43.745.801-.315-.365-.93zm-63.023-109.159l-.866-.5-.289.5.289.5.866-.5zm60.742-105.208l-.866-.5.866.5zm.578-1l.866.5.866-1.5h-1.732v1zm-1.155 0v-1 1zm-121.485 0l-.866.5.289.5h.577v-1zM46.719 6.947l-.65-.762-.633.54.416.721.866-.5zm1.241-1.938v-1h-.758l-.205.73.963.27zm428.769 0l.866.5.866-1.5h-1.732v1zM132.004 376.324l-.276.961.751.217.391-.678-.866-.5zm63.41-109.829l.866.5.289-.5-.289-.5-.866.5zm-66.242 110.079l-.866.5.467.81.84-.413-.441-.897zM6.414 163.951l-.627-.779-.667.537.428.742.866-.5zm1.451-2.664v-1h-.902l-.092.897.994.103zm126.807 0l.866-.5-.289-.5h-.577v1zm1.155 0v-1h-1.732l.866 1.5.866-.5zm60.165 104.208l-.866.5.866 1.5.866-1.5-.866-.5zm60.165-104.208l.866.5.866-1.5h-1.732v1zM49.105 4.025v-.082h-2v.05l2 .032zM477.306 3.01h-429.2v2h429.2v-2zm1.155 0h-1.155v2h1.155v-2zm.288 2.5l.578-1-1.732-1-.578 1 1.732 1zM264.398 376.776L478.749 5.509l-1.732-1-214.351 371.267 1.732 1zm-1.5.273a2.932 2.932 0 011.078 2.276h2a4.936 4.936 0 00-1.809-3.822l-1.269 1.546zm1.078 2.276a2.943 2.943 0 01-2.944 2.943v2a4.944 4.944 0 004.944-4.943h-2zm-2.944 2.943a2.943 2.943 0 01-2.943-2.943h-2a4.943 4.943 0 004.943 4.943v-2zm-2.943-2.943a2.94 2.94 0 011.214-2.382l-1.177-1.617a4.94 4.94 0 00-2.037 3.999h2zm-62.963-111.33l62.723 108.64 1.732-1-62.723-108.64-1.732 1zm-61.332 109.23l63.064-109.23-1.732-1-63.064 109.23 1.732 1zm2.059 2.889c0-1.807-.97-3.387-2.413-4.248l-1.025 1.718a2.94 2.94 0 011.438 2.53h2zm-4.943 4.943a4.943 4.943 0 004.943-4.943h-2a2.943 2.943 0 01-2.943 2.943v2zm-4.943-4.943a4.943 4.943 0 004.943 4.943v-2a2.943 2.943 0 01-2.943-2.943h-2zm1.716-3.744a4.934 4.934 0 00-1.716 3.744h2c0-.891.395-1.689 1.022-2.23l-1.306-1.514zM4.695 164.975L127.47 377.627l1.732-1L6.427 163.975l-1.732 1zm-.752.846c.721 0 1.409-.155 2.03-.435l-.822-1.823a2.92 2.92 0 01-1.208.258v2zM-1 160.878a4.943 4.943 0 004.943 4.943v-2A2.943 2.943 0 011 160.878h-2zm4.943-4.943A4.943 4.943 0 00-1 160.878h2a2.943 2.943 0 012.943-2.943v-2zm4.888 4.203a4.944 4.944 0 00-4.888-4.203v2a2.944 2.944 0 012.91 2.5l1.978-.297zm125.264-.851H7.842v2h126.253v-2zM45.014 7.994l88.215 152.793 1.732-1L46.746 6.994l-1.732 1zm-.851.892c.77 0 1.5-.176 2.153-.492l-.872-1.8c-.386.187-.82.292-1.281.292v2zM39.22 3.943a4.943 4.943 0 004.943 4.943v-2a2.943 2.943 0 01-2.943-2.943h-2zM44.163-1a4.943 4.943 0 00-4.943 4.943h2A2.943 2.943 0 0144.163 1v-2zm4.943 4.943A4.943 4.943 0 0044.163-1v2a2.943 2.943 0 012.943 2.943h2zm211.926 372.439c.443 0 .86.097 1.233.27l.839-1.816a4.924 4.924 0 00-2.072-.454v2zm-1.075.202a2.94 2.94 0 011.075-.202v-2a4.94 4.94 0 00-1.806.341l.731 1.861zm.501-1.43l-63.023-109.159-1.732 1 63.023 109.159 1.732-1zm-63.023-108.159l60.742-105.208-1.732-1-60.742 105.208 1.732 1zm60.742-105.208l.578-1-1.732-1-.578 1 1.732 1zm-.288-2.5h-1.155v2h1.155v-2zm-1.155 0H135.249v2h121.485v-2zm-120.619.5L47.585 6.447l-1.733 1 88.531 153.34 1.732-1zM47.367 7.707a4.945 4.945 0 001.556-2.428l-1.926-.54a2.945 2.945 0 01-.927 1.446l1.297 1.522zm.593-1.698h428.77v-2H47.96v2zm427.903-1.5L261.819 375.244l1.732 1L477.595 5.509l-1.732-1zM132.87 376.824l63.41-109.829-1.732-1-63.41 109.829 1.732 1zm-1.96.347c.285 0 .559.04.818.114l.553-1.921a4.931 4.931 0 00-1.371-.193v2zm-1.297.3c.39-.192.83-.3 1.297-.3v-2c-.78 0-1.521.181-2.18.506l.883 1.794zM5.548 164.451l122.758 212.623 1.732-1L7.28 163.451l-1.732 1zm1.323-3.267a2.937 2.937 0 01-1.084 1.988l1.254 1.558a4.938 4.938 0 001.819-3.341l-1.99-.205zm127.801-.897H7.865v2h126.807v-2zm61.608 105.708l-60.742-105.208-1.732 1 60.742 105.208 1.732-1zm-61.319-104.208l60.165 104.208 1.732-1-60.165-104.208-1.732 1zm121.196-1.5h-120.33v2h120.33v-2zm-59.299 105.708l60.165-104.208-1.732-1-60.165 104.208 1.732 1z" fill="#000" fill-opacity=".5" mask="url(#a)"/></svg>